<svg width="1080" height="1920" viewBox="0 0 1080 1920" fill="none" xmlns="http://www.w3.org/2000/svg">
  <defs>
    <linearGradient id="bgBase" x1="540" y1="0" x2="540" y2="1920" gradientUnits="userSpaceOnUse">
      <stop offset="0" stop-color="#fffefc"/>
      <stop offset="1" stop-color="#fffaf3"/>
    </linearGradient>
    <radialGradient id="roseGlow" cx="0" cy="0" r="1" gradientUnits="userSpaceOnUse" gradientTransform="translate(164 184) rotate(30) scale(360 280)">
      <stop stop-color="#f4c8cf" stop-opacity="0.5"/>
      <stop offset="1" stop-color="#f4c8cf" stop-opacity="0"/>
    </radialGradient>
    <radialGradient id="goldGlow" cx="0" cy="0" r="1" gradientUnits="userSpaceOnUse" gradientTransform="translate(896 1520) rotate(135) scale(320 260)">
      <stop stop-color="#f0dca7" stop-opacity="0.42"/>
      <stop offset="1" stop-color="#f0dca7" stop-opacity="0"/>
    </radialGradient>
  </defs>

  <rect width="1080" height="1920" fill="url(#bgBase)"/>
  <rect width="1080" height="1920" fill="url(#roseGlow)"/>
  <rect width="1080" height="1920" fill="url(#goldGlow)"/>

  <rect x="84" y="102" width="912" height="1716" rx="52" fill="rgba(255,255,255,0.65)" stroke="rgba(86,62,49,0.14)" stroke-width="2"/>
  <rect x="128" y="156" width="824" height="110" rx="30" fill="#fffdf8" stroke="#ead9c8" stroke-width="2"/>
  <ellipse cx="222" cy="212" rx="84" ry="24" stroke="#5c5752" stroke-width="16"/>
  <text x="320" y="225" fill="#78685e" font-family="Manrope, Arial, sans-serif" font-size="22" font-weight="800" letter-spacing="3">COLLECTOR TOOLKIT</text>

  <text x="136" y="436" fill="#35261e" font-family="Fraunces, Georgia, serif" font-size="126" font-weight="700">tracker</text>
  <text x="136" y="556" fill="#35261e" font-family="Fraunces, Georgia, serif" font-size="126" font-weight="700">features!</text>
  <text x="140" y="638" fill="#78685e" font-family="Manrope, Arial, sans-serif" font-size="33">a warm little tour through the catalog</text>

  <rect x="134" y="724" width="812" height="816" rx="38" fill="#fffdf8" stroke="#ead9c8" stroke-width="2"/>
  <rect x="176" y="776" width="728" height="54" rx="27" fill="#ffffff"/>
  <rect x="200" y="792" width="166" height="22" rx="11" fill="#f4c8cf"/>
  <rect x="390" y="792" width="138" height="22" rx="11" fill="#d8e3cf"/>
  <rect x="552" y="792" width="148" height="22" rx="11" fill="#f0dca7"/>
  <rect x="724" y="792" width="128" height="22" rx="11" fill="#d8e3cf" fill-opacity="0.72"/>

  <rect x="176" y="876" width="204" height="282" rx="28" fill="#ffffff" stroke="#ead9c8"/>
  <rect x="438" y="876" width="204" height="282" rx="28" fill="#ffffff" stroke="#ead9c8"/>
  <rect x="700" y="876" width="204" height="282" rx="28" fill="#ffffff" stroke="#ead9c8"/>
  <circle cx="278" cy="972" r="54" fill="#f7cad2"/>
  <circle cx="540" cy="972" r="54" fill="#d8e3cf"/>
  <circle cx="802" cy="972" r="54" fill="#f1dfae"/>
  <rect x="204" y="1110" width="146" height="18" rx="9" fill="#ead9c8"/>
  <rect x="466" y="1110" width="146" height="18" rx="9" fill="#ead9c8"/>
  <rect x="728" y="1110" width="146" height="18" rx="9" fill="#ead9c8"/>
  <rect x="204" y="1144" width="112" height="16" rx="8" fill="#f4c8cf"/>
  <rect x="466" y="1144" width="112" height="16" rx="8" fill="#d8e3cf"/>
  <rect x="728" y="1144" width="112" height="16" rx="8" fill="#f0dca7"/>

  <rect x="176" y="1248" width="336" height="220" rx="28" fill="#fff8ef" stroke="#ead9c8"/>
  <rect x="568" y="1248" width="336" height="220" rx="28" fill="#fff8ef" stroke="#ead9c8"/>
  <text x="214" y="1324" fill="#78685e" font-family="Manrope, Arial, sans-serif" font-size="22" font-weight="800" letter-spacing="2">SEARCH + STATUS</text>
  <text x="606" y="1324" fill="#78685e" font-family="Manrope, Arial, sans-serif" font-size="22" font-weight="800" letter-spacing="2">SERIES + FILTERS</text>
  <text x="214" y="1386" fill="#35261e" font-family="Fraunces, Georgia, serif" font-size="46" font-weight="700">cute, tidy,</text>
  <text x="214" y="1444" fill="#35261e" font-family="Fraunces, Georgia, serif" font-size="46" font-weight="700">collector-first</text>
  <text x="606" y="1386" fill="#35261e" font-family="Fraunces, Georgia, serif" font-size="46" font-weight="700">browse every</text>
  <text x="606" y="1444" fill="#35261e" font-family="Fraunces, Georgia, serif" font-size="46" font-weight="700">little favorite</text>
</svg>
